#!OML:ASF H:\Punching\Project 1\Capture day 1\Session 1\female.ASF
:FULLY-SPECIFIED
:DEGREES
964
root -1.78089 14.2391 5.63959 15.3367 -25.3436 -9.17979
lowerback 2.62186 -4.60084 -7.64714
upperback -4.16667 -6.70289 -2.15005
thorax -5.21778 -3.06823 2.4467
lowerneck 2.38862 13.1006 28.3718
upperneck 31.1034 17.4071 -4.76354
head 13.3862 10.388 -4.1077
rclavicle -4.35338e-014 -1.59028e-014
rhumerus 11.6103 32.9808 -83.9728
rradius 131.075
rwrist -38.6313
rhand -14.6907 -5.17913
rfingers 7.12502
rthumb 11.4631 -34.8457
lclavicle -4.35338e-014 -1.59028e-014
lhumerus 23.7889 12.8267 55.1632
lradius 42.1483
lwrist -4.56106
lhand -6.90963 22.4049
lfingers 7.12502
lthumb 18.9577 51.501
rfemur -52.6593 16.8885 24.268
rtibia 50.6842
rfoot -10.7465 13.0789
rtoes 2.95825
lfemur 20.3697 -0.145135 -7.60323
ltibia 15.3899
lfoot -23.1847 20.7249
ltoes -36.8521
965
root -1.76608 14.2355 5.63713 15.4046 -25.5381 -9.26173
lowerback 2.78365 -4.56484 -7.26964
upperback -4.15575 -6.65275 -2.18225
thorax -5.34525 -3.05484 2.2224
lowerneck 2.21679 12.9501 28.1388
upperneck 30.7782 17.2782 -5.17194
head 13.2538 10.2572 -4.26365
rclavicle -1.46007e-013 -6.36111e-015
rhumerus 11.8322 32.9172 -83.8122
rradius 131.19
rwrist -38.0177
rhand -14.5983 -5.05246
rfingers 7.12502
rthumb 11.5521 -34.7141
lclavicle -1.46007e-013 -6.36111e-015
lhumerus 22.2295 12.8138 54.9786
lradius 46.1214
lwrist -1.2227
lhand -6.5384 22.6824
lfingers 7.12502
lthumb 19.3147 51.7432
rfemur -52.6686 16.6239 24.4429
rtibia 50.6445
rfoot -10.7829 13.5485
rtoes 2.98586
lfemur 20.0484 0.215963 -7.50555
ltibia 16.0491
lfoot -23.4481 20.4709
ltoes -36.7787
966
root -1.75066 14.236 5.6378 15.5067 -25.6694 -9.22698
lowerback 2.83261 -4.43636 -6.90782
upperback -4.16721 -6.47177 -2.2509
thorax -5.44477 -2.97844 1.95226
lowerneck 1.98731 12.734 27.8404
upperneck 30.4955 17.018 -5.4867
head 13.1087 10.0717 -4.3944
rclavicle 7.29291e-014 1.59028e-014
rhumerus 11.9329 32.7619 -83.771
rradius 131.333
rwrist -37.3773
rhand -14.5177 -4.89278
rfingers 7.12502
rthumb 11.6299 -34.55
lclavicle 7.29291e-014 1.59028e-014
lhumerus 20.658 12.1113 54.971
lradius 51.1297
lwrist 3.50784
lhand -6.93069 23.7825
lfingers 7.12502
lthumb 18.9375 52.8806
rfemur -52.7888 16.4111 24.4255
rtibia 50.6313
rfoot -10.8467 13.854
rtoes 2.90423
lfemur 19.6333 0.545771 -7.49556
ltibia 16.6449
lfoot -23.6278 20.1658
ltoes -36.6618
967
root -1.736 14.2405 5.64064 15.6338 -25.7005 -9.09975
lowerback 2.78258 -4.2416 -6.56746
upperback -4.18512 -6.19537 -2.33867
thorax -5.49901 -2.85658 1.65913
lowerneck 1.70254 12.471 27.4634
upperneck 30.2612 16.6476 -5.67841
head 12.9533 9.8414 -4.48179
rclavicle 2.98177e-016 1.90833e-014
rhumerus 11.9604 32.5316 -83.8384
rradius 131.491
rwrist -36.8206
rhand -14.4548 -4.79843
rfingers 7.12502
rthumb 11.6905 -34.4523
lclavicle 2.98177e-016 1.90833e-014
lhumerus 19.1394 11.0046 55.191
lradius 56.9063
lwrist 8.92144
lhand -7.94679 25.4963
lfingers 7.12502
lthumb 17.96 54.687
rfemur -52.9963 16.2624 24.2417
rtibia 50.6388
rfoot -10.9275 13.9522
rtoes 2.72182
lfemur 19.1296 0.833049 -7.52154
ltibia 17.1874
lfoot -23.7232 19.784
ltoes -36.5424
968
root -1.72324 14.2486 5.64472 15.7616 -25.594 -8.90644
lowerback 2.6788 -4.00131 -6.25514
upperback -4.19569 -5.85434 -2.42758
thorax -5.51251 -2.70331 1.3706
lowerneck 1.36294 12.1712 27.0162
upperneck 30.0785 16.1849 -5.75269
head 12.7956 9.57433 -4.5249
rclavicle 7.65321e-015 1.27222e-014
rhumerus 11.9425 32.229 -83.9747
rradius 131.657
rwrist -36.4518
rhand -14.4405 -4.74703
rfingers 7.12502
rthumb 11.7043 -34.4001
lclavicle 7.65321e-015 1.27222e-014
lhumerus 17.6939 9.73615 55.6635
lradius 63.131
lwrist 14.1941
lhand -9.21689 27.3984
lfingers 7.12502
lthumb 16.7376 56.6969
rfemur -53.2452 16.174 23.9271
rtibia 50.661
rfoot -11.0232 13.821
rtoes 2.4747
lfemur 18.559 1.0638 -7.53265
ltibia 17.6924
lfoot -23.7496 19.3053
ltoes -36.4345
969
root -1.71341 14.26 5.64898 15.8844 -25.3141 -8.67163
lowerback 2.54752 -3.7313 -5.96254
upperback -4.19094 -5.47068 -2.50512
thorax -5.48902 -2.52905 1.09879
lowerneck 0.968724 11.8381 26.5029
upperneck 29.939 15.6392 -5.71846
head 12.6371 9.27378 -4.52544
rclavicle -5.50634e-014 -5.40694e-014
rhumerus 11.9056 31.846 -84.1373
rradius 131.823
rwrist -36.3382
rhand -14.4827 -4.74293
rfingers 7.12502
rthumb 11.6636 -34.3983
lclavicle -5.50634e-014 -5.40694e-014
lhumerus 16.3424 8.4104 56.3422
lradius 69.5016
lwrist 18.7645
lhand -10.3013 29.1736
lfingers 7.12502
lthumb 15.6934 58.5572
rfemur -53.5141 16.1389 23.5108
rtibia 50.6929
rfoot -11.1252 13.4472
rtoes 2.18711
lfemur 17.9218 1.21974 -7.48588
ltibia 18.1735
lfoot -23.7244 18.7188
ltoes -36.3515
